<svg width="20" height="20" viewBox="0 0 20 20" fill="none" xmlns="http://www.w3.org/2000/svg">
<path fill-rule="evenodd" clip-rule="evenodd" d="M5.83175 4.41073C6.93723 3.30525 8.43658 2.6842 9.99996 2.6842C11.5633 2.6842 13.0627 3.30525 14.1682 4.41073C15.2736 5.51621 15.8947 7.01556 15.8947 8.57894C15.8947 10.8648 14.4131 13.0521 12.8344 14.7186C12.0552 15.5411 11.2743 16.2137 10.6877 16.6808C10.405 16.9059 10.1683 17.0826 9.99996 17.2045C9.83162 17.0826 9.59496 16.9059 9.31225 16.6808C8.72561 16.2137 7.94474 15.5411 7.16557 14.7186C5.58678 13.0521 4.10522 10.8648 4.10522 8.57894C4.10522 7.01556 4.72628 5.51621 5.83175 4.41073ZM10.2773 18.2318L9.99996 17.8158C10.2773 18.2318 10.2774 18.2317 10.2776 18.2316L10.278 18.2313L10.2794 18.2304L10.2837 18.2275L10.2992 18.217C10.3126 18.208 10.3318 18.1948 10.3565 18.1777C10.4059 18.1435 10.4772 18.0934 10.5675 18.0282C10.7479 17.8979 11.004 17.7072 11.3106 17.4631C11.923 16.9755 12.7408 16.2714 13.5603 15.4064C15.1789 13.6979 16.8947 11.2668 16.8947 8.57894C16.8947 6.75034 16.1683 4.99664 14.8753 3.70363C13.5823 2.41061 11.8286 1.6842 9.99996 1.6842C8.17136 1.6842 6.41766 2.41061 5.12465 3.70363C3.83163 4.99664 3.10522 6.75034 3.10522 8.57894C3.10522 11.2668 4.82104 13.6979 6.43962 15.4064C7.25913 16.2714 8.07694 16.9755 8.68932 17.4631C8.9959 17.7072 9.25201 17.8979 9.43244 18.0282C9.52268 18.0934 9.59407 18.1435 9.64346 18.1777C9.66816 18.1948 9.68736 18.208 9.70069 18.217L9.71621 18.2275L9.72057 18.2304L9.72188 18.2313L9.72232 18.2316C9.72248 18.2317 9.72261 18.2318 9.99996 17.8158L9.72261 18.2318C9.89056 18.3438 10.1094 18.3438 10.2773 18.2318ZM8.36838 8.57894C8.36838 7.67784 9.09887 6.94736 9.99996 6.94736C10.9011 6.94736 11.6315 7.67784 11.6315 8.57894C11.6315 9.48004 10.9011 10.2105 9.99996 10.2105C9.09887 10.2105 8.36838 9.48004 8.36838 8.57894ZM9.99996 5.94736C8.54658 5.94736 7.36838 7.12556 7.36838 8.57894C7.36838 10.0323 8.54658 11.2105 9.99996 11.2105C11.4533 11.2105 12.6315 10.0323 12.6315 8.57894C12.6315 7.12556 11.4533 5.94736 9.99996 5.94736Z" fill="white"/>
</svg>
