<svg width="21" height="20" viewBox="0 0 21 20" fill="none" xmlns="http://www.w3.org/2000/svg">
<path fill-rule="evenodd" clip-rule="evenodd" d="M3.38452 10C3.38452 6.06998 6.56989 2.88461 10.4999 2.88461C14.4299 2.88461 17.6153 6.06998 17.6153 10C17.6153 13.93 14.4299 17.1154 10.4999 17.1154C6.56989 17.1154 3.38452 13.93 3.38452 10ZM10.4999 1.88461C6.0176 1.88461 2.38452 5.51769 2.38452 10C2.38452 14.4823 6.0176 18.1154 10.4999 18.1154C14.9822 18.1154 18.6153 14.4823 18.6153 10C18.6153 5.51769 14.9822 1.88461 10.4999 1.88461ZM10.7214 6.58038C10.7214 6.30424 10.4976 6.08038 10.2214 6.08038C9.94528 6.08038 9.72143 6.30424 9.72143 6.58038V10.5708C9.72143 10.7469 9.81405 10.91 9.96527 11.0002L13.0691 12.8518C13.3062 12.9933 13.6131 12.9157 13.7546 12.6786C13.8961 12.4414 13.8185 12.1345 13.5814 11.993L10.7214 10.2869V6.58038Z" fill="white"/>
</svg>
